<svg xmlns="http://www.w3.org/2000/svg" fill="none" viewBox="583.96 63.91747572815534 178.55700000000002 176.0533980582524" style="max-height: 500px" width="178.55700000000002" height="176.0533980582524">
<path fill="black" d="M733.68 197.442C735.47 199.243 738.427 199.083 739.883 196.999C740.964 195.453 741.996 193.859 742.979 192.216C750.262 180.151 753.904 166.864 753.904 152.355C753.904 137.846 750.262 124.635 742.979 112.722C735.848 100.657 726.138 91.1876 713.848 84.3149C701.71 77.4422 688.358 74.0059 673.793 74.0059C659.227 74.0059 645.875 77.4422 633.737 84.3149C632.561 84.9807 631.409 85.6708 630.28 86.3854C628.065 87.7876 627.819 90.8821 629.67 92.7447L645.403 108.581C646.409 109.594 647.973 109.759 649.213 109.057C656.496 104.78 664.765 102.642 674.02 102.642C683.124 102.642 691.317 104.78 698.6 109.057C706.034 113.333 711.8 119.289 715.896 126.926C720.145 134.409 722.269 142.886 722.269 152.355C722.269 161.976 720.145 170.606 715.896 178.242C715.627 178.734 715.706 179.349 716.101 179.746L733.68 197.442Z"/>
<path fill="black" d="M707.326 223.704C709.924 222.533 710.425 219.125 708.413 217.1L692.686 201.269C691.541 200.117 689.849 199.736 688.29 200.175C683.812 201.437 679.055 202.067 674.02 202.067C664.765 202.067 656.496 200.005 649.213 195.882C641.93 191.605 636.165 185.725 631.916 178.242C627.82 170.606 625.771 161.976 625.771 152.355C625.771 147.501 626.293 142.919 627.335 138.609C627.704 137.085 627.308 135.46 626.206 134.351L608.633 116.661C606.68 114.696 603.409 115.1 602.16 117.578C596.811 128.197 594.137 139.789 594.137 152.355C594.137 166.864 597.702 180.151 604.833 192.216C611.964 204.129 621.599 213.522 633.737 220.394C645.875 227.267 659.227 230.704 673.793 230.704C685.795 230.704 696.973 228.37 707.326 223.704Z"/>
<path fill="black" d="M346.099 133.64C347.885 133.64 349.464 132.507 350.177 130.858C350.757 129.516 351.398 128.205 352.098 126.926C356.347 119.289 362.112 113.333 369.395 109.057C376.83 104.78 385.175 102.642 394.43 102.642C411.106 102.642 424.611 109.873 434.945 124.334C436.365 126.321 439.112 126.886 441.098 125.475L457.506 113.817C459.293 112.546 459.84 110.109 458.661 108.253C452.192 98.0769 443.678 90.021 433.12 84.0858C421.589 77.3658 408.692 74.0059 394.43 74.0059C379.712 74.0059 366.209 77.4422 353.919 84.3149C341.781 91.1876 332.147 100.657 325.015 112.722C322.021 117.725 319.655 122.956 317.918 128.417C317.08 131.05 319.108 133.64 321.855 133.64H346.099Z"/>
<path fill="black" d="M348.189 168.827C347.622 166.914 345.922 165.525 343.938 165.525H320.303C317.692 165.525 315.692 167.878 316.265 170.441C317.977 178.095 320.818 185.353 324.788 192.216C331.919 204.129 341.554 213.522 353.692 220.394C365.981 227.267 379.485 230.704 394.202 230.704C408.616 230.704 421.665 227.42 433.347 220.853C443.911 214.776 452.366 206.639 458.712 196.442C459.866 194.589 459.311 192.176 457.537 190.915L441.098 179.235C439.112 177.823 436.365 178.388 434.945 180.375C424.611 194.837 411.106 202.067 394.43 202.067C385.175 202.067 376.83 200.005 369.395 195.882C362.112 191.605 356.347 185.725 352.098 178.242C350.473 175.272 349.17 172.134 348.189 168.827Z"/>
<path fill="black" d="M284.38 230.704C286.725 230.704 288.626 228.79 288.626 226.43V81.0289C288.626 78.6685 286.725 76.7549 284.38 76.7549H262.148C259.803 76.7549 257.902 78.6685 257.902 81.0289V156.257C257.902 160.125 253.204 162.004 250.567 159.19L171.992 75.347C171.19 74.491 170.073 74.0059 168.904 74.0059H164.968C162.623 74.0059 160.722 75.9194 160.722 78.2798V223.68C160.722 226.041 162.623 227.954 164.968 227.954H187.2C189.545 227.954 191.446 226.041 191.446 223.68V148.053C191.446 144.177 196.16 142.303 198.792 145.132L277.126 229.351C277.929 230.214 279.051 230.704 280.226 230.704H284.38Z"/>
<path fill="black" d="M30.7244 222.914C40.4348 228.107 51.4349 230.704 63.7247 230.704C75.8627 230.704 86.7111 228.107 96.2698 222.914C105.98 217.569 113.567 210.009 119.029 200.235C124.642 190.307 127.449 178.7 127.449 165.413V81.0289C127.449 78.6685 125.548 76.7549 123.203 76.7549H100.971C98.626 76.7549 96.725 78.6685 96.725 81.0289V167.704C96.725 178.7 93.6905 187.176 87.6215 193.133C81.5524 199.089 73.5869 202.067 63.7247 202.067C54.0143 202.067 46.0487 199.089 39.8279 193.133C33.7589 187.176 30.7244 178.7 30.7244 167.704V81.0289C30.7244 78.6685 28.8234 76.7549 26.4785 76.7549H4.24595C1.90098 76.7549 0 78.6685 0 81.0289L0 165.413C0 178.7 2.73106 190.307 8.19318 200.235C13.6553 210.009 21.1657 217.569 30.7244 222.914Z"/>
<path fill="black" d="M517.493 81.0289C517.493 78.6685 515.592 76.7549 513.247 76.7549H491.014C488.669 76.7549 486.768 78.6685 486.768 81.0289V223.68C486.768 226.041 488.669 227.954 491.014 227.954H579.02C581.365 227.954 583.266 226.041 583.266 223.68V204.279C583.266 201.919 581.365 200.005 579.02 200.005H521.739C519.394 200.005 517.493 198.092 517.493 195.731V81.0289Z"/>
<path fill="black" d="M903.58 230.704C905.925 230.704 907.826 228.79 907.826 226.43V81.0289C907.826 78.6685 905.925 76.7549 903.58 76.7549H881.348C879.003 76.7549 877.102 78.6685 877.102 81.0289V156.257C877.102 160.125 872.404 162.004 869.767 159.19L791.192 75.347C790.39 74.491 789.273 74.0059 788.104 74.0059H784.167C781.823 74.0059 779.922 75.9194 779.922 78.2798V223.68C779.922 226.041 781.823 227.954 784.167 227.954H806.4C808.745 227.954 810.646 226.041 810.646 223.68V148.053C810.646 144.177 815.36 142.303 817.991 145.132L896.326 229.351C897.129 230.214 898.251 230.704 899.426 230.704H903.58Z"/>
<path fill="black" d="M942.167 81.0289C942.167 78.6685 944.068 76.7549 946.413 76.7549H968.646C970.99 76.7549 972.891 78.6685 972.891 81.0289V223.68C972.891 226.041 970.99 227.954 968.646 227.954H946.413C944.068 227.954 942.167 226.041 942.167 223.68V81.0289Z"/>
<path fill="black" d="M1056.28 183.417C1057.95 180.787 1061.77 180.787 1063.44 183.417L1090.47 225.982C1091.25 227.211 1092.6 227.954 1094.05 227.954H1118.75C1122.11 227.954 1124.14 224.206 1122.31 221.362L1078.62 153.264C1077.73 151.87 1077.72 150.082 1078.59 148.676L1119.28 83.2981C1121.06 80.4516 1119.02 76.7549 1115.69 76.7549H1090.93C1089.44 76.7549 1088.07 77.5359 1087.3 78.8145L1063.48 118.395C1061.83 121.135 1057.88 121.142 1056.22 118.408L1032.2 78.8017C1031.43 77.5304 1030.05 76.7549 1028.57 76.7549H1003.64C1000.29 76.7549 998.259 80.4767 1000.06 83.3221L1041.32 148.658C1042.22 150.072 1042.21 151.881 1041.3 153.285L997.228 221.347C995.387 224.19 997.414 227.954 1000.79 227.954H1025.67C1027.12 227.954 1028.47 227.211 1029.25 225.982L1056.28 183.417Z"/>
<circle fill="#FE8F28" r="27.4221" cy="152.347" cx="673.367"/>
<circle fill="#FE8F28" r="27.4221" cy="27.4221" cx="958.254"/>
</svg>